<?xml version="1.0" standalone="yes"?>
<svg xmlns="http://www.w3.org/2000/svg" width="202" height="202">
<path style="fill:#ffffff; stroke:none;" d="M0 0L0 202L202 202L202 0L0 0z"/>
<path style="fill:#00170e; stroke:none;" d="M127 15L128 16L127 15z"/>
<path style="fill:#007b4e; stroke:none;" d="M128 15C132.217 16.7693 137.459 16 142 16C137.783 14.2307 132.541 15 128 15z"/>
<path style="fill:#001910; stroke:none;" d="M124 16L125 17L124 16z"/>
<path style="fill:#00945e; stroke:none;" d="M105 74C110.319 71.4363 111.138 67.6306 110.985 62C110.619 48.5796 105.965 36.6508 116.213 25.0185C121.957 18.499 142.167 10.8273 146 23C147.422 21.2115 147.697 20.2942 148 18C143.221 16.9076 138.937 16.006 134 16C130.641 15.9959 127.21 15.8109 124 16.9699C121.436 17.8956 119.07 19.4051 117.04 21.213C107.636 29.5903 107.288 42.2948 108.09 54C108.341 57.6765 109.345 61.2939 108.785 65C108.29 68.2826 106.514 71.1072 105 74z"/>
<path style="fill:#006d45; stroke:none;" d="M142 16C143.248 16.6848 143.549 16.7488 145 17C143.752 16.3152 143.452 16.2512 142 16z"/>
<path style="fill:#001d12; stroke:none;" d="M122 17L123 18L122 17z"/>
<path style="fill:#00a569; stroke:none;" d="M103 24C95.0312 24.1865 81.3724 28.5619 77.3179 36.0401C72.2416 45.4029 75.2815 60.3394 77.7608 70C79.1977 75.5988 85.9992 83.9024 83.3927 89.767C79.673 98.1365 72.0664 84.2343 71 81C68.0285 88.6934 81.3902 100.856 85.3927 90.8912C87.5126 85.6134 83.6165 79.8345 82.1281 75C78.359 62.7576 72.0117 38.6733 86.0008 31.2631C90.7608 28.7416 95.898 26.7007 101 25C96.1837 36.8189 91.9507 52.2119 94.7909 65C96.3329 71.9432 101.686 81.5494 109.786 74.5664C116.139 69.0899 113.616 60.1432 113.031 53C111.857 38.6568 114.76 24.1979 131 20.5285C134.737 19.6842 138.332 20.1267 142 21C137.567 30.3532 130.271 39.4006 129.174 50C128.736 54.2341 130.503 62.9941 136.532 58.392C142.836 53.5811 145.317 41.1516 147.953 34C149.458 29.9163 150.899 25.4512 155.043 23.3179C160.913 20.2965 166.366 24.0655 172 25.4468C175.856 26.3921 180.06 26 184 26C183.646 34.2505 182.436 41.7563 184.29 49.9961C185.322 54.5842 188.312 58.2379 188.825 63.0008C189.295 67.3749 188.538 73.2803 184.61 76.0116C178.65 80.1549 166.894 78 160 78C166.732 81.022 185.908 82.6271 189.397 73.9421C193.509 63.705 186.978 52.8018 185.439 43C184.41 36.4483 186.942 30.5145 187 24C183.023 24 178.917 24.2868 175 23.4853C168.573 22.1704 160.615 19.033 154.043 21.6034C149.859 23.2401 148.148 28.1374 146.684 32C143.18 41.2507 138.751 49.9492 135 59C125.525 51.4836 134.757 37.496 140.513 30C142.662 27.202 148.537 21.6934 143.681 18.5725C140.488 16.5201 135.621 16.8867 132 17.0185C113.633 17.687 107.662 36.4868 109.104 52C109.616 57.5079 112.784 63.54 109.972 68.9846C106.444 75.8157 100.385 74.6386 97.9699 67.9992C95.4444 61.055 96.4676 50.203 97.5903 43C98.6444 36.2372 101.512 30.5082 103 24z"/>
<path style="fill:#00623e; stroke:none;" d="M145 17C146.248 17.6848 146.548 17.7488 148 18C146.752 17.3152 146.452 17.2512 145 17z"/>
<path style="fill:#001d12; stroke:none;" d="M120 18L121 19L120 18z"/>
<path style="fill:#007c4f; stroke:none;" d="M148 18L148 22C148.71 20.2405 148.71 19.7595 148 18z"/>
<path style="fill:#001a10; stroke:none;" d="M118 19L119 20L118 19z"/>
<path style="fill:#003e27; stroke:none;" d="M149.333 19.6667C149.278 19.7222 149.222 20.7778 149.667 20.3333C149.722 20.2778 149.778 19.2222 149.333 19.6667z"/>
<path style="fill:#000604; stroke:none;" d="M158 19L159 20L158 19z"/>
<path style="fill:#003d27; stroke:none;" d="M159.667 19.3333C159.222 19.7778 160.278 19.7222 160.333 19.6667C160.778 19.2222 159.722 19.2778 159.667 19.3333z"/>
<path style="fill:#00321f; stroke:none;" d="M104 20C105.928 21.0909 106.77 21.1654 109 21C107.231 20.2211 105.964 20.0876 104 20z"/>
<path style="fill:#001f13; stroke:none;" d="M117 20L118 21L117 20z"/>
<path style="fill:#00a86b; stroke:none;" d="M101 25C94.7831 26.3285 83.6487 29.6816 79.9383 35.213C77.6955 38.5565 78.0062 43.1674 78 47C77.9854 56.0939 79.448 64.1563 81.4035 73C82.5403 78.1407 87.225 84.5612 85.3573 89.956C82.4234 98.4301 73.0019 91.7146 70.1605 86.8958C64.3496 77.041 66 63.8963 66 53C57.9468 55.1169 52.4864 63.9308 49.0625 71C42.6901 84.1569 36.5738 98.5015 46.3627 111.906C49.9466 116.814 55.21 117.841 61 117.985C64.6066 118.076 68.8962 117.447 71.6674 120.318C74.4576 123.208 72.5695 126.563 73.2045 130C74.4088 136.519 75.1285 143.907 78.3596 149.826C86.278 164.333 108.366 167.391 123 162.64C130.822 160.101 137.468 155.153 145 152L145 149C133.455 146.154 121.493 142.398 111.004 136.622C108.155 135.053 100.011 130.652 104.376 126.6C107.937 123.293 114.084 125.771 118 126.87C129.095 129.986 140.618 137.418 152 138.775C161.492 139.907 162.269 133.26 166.649 127C169.414 123.048 173.321 120.047 175.982 116C178.235 112.574 178.956 108.474 181.133 105C183.303 101.536 185.891 98.991 187 95C171.503 95.0103 158.723 97.1349 144 90.4444C140.397 88.8073 126.248 82.2314 134.153 77.3179C137.203 75.4221 141.574 75.9633 145 76.0039C154.379 76.1148 163.546 78.0152 173 78C177.281 77.9931 183.741 78.5586 186.633 74.686C192.961 66.2128 186.141 57.2836 184.29 48.9992C182.517 41.0617 183.836 33.9406 184 26C180.374 26 176.549 26.317 173 25.4468C166.868 23.9433 160.47 19.8785 154.105 23.3179C150.477 25.2786 149.285 29.3873 147.953 33C145.28 40.2507 142.552 53.8846 135.703 58.338C130.362 61.8105 128.83 53.5499 129.305 50C130.746 39.2262 138.588 31.0205 142 21C138.426 19.9435 134.717 19.6817 131 20.3287C113.822 23.3187 111.363 39.5232 112.741 54C113.419 61.126 115.76 67.9837 109.786 73.7716C102.038 81.2791 96.8872 71.8125 95.1188 64.9606C91.6785 51.6304 97.3923 37.6492 101 25z"/>
<path style="fill:#000a06; stroke:none;" d="M154 20L155 21L154 20z"/>
<path style="fill:#008353; stroke:none;" d="M155 20C158.697 21.5515 163.017 21 167 21C163.303 19.4485 158.983 20 155 20z"/>
<path style="fill:#009b63; stroke:none;" d="M76 37C83.6122 30.6156 92.7086 24.5282 103 24C98.4981 36.3937 96.9778 46.7468 97 60C97.0106 66.3601 97.5576 73.7888 105 75C90.7185 61.3286 100.687 36.163 107 21C97.0174 21.0342 79.5398 26.8094 76 37z"/>
<path style="fill:#002215; stroke:none;" d="M116 21L117 22L116 21z"/>
<path style="fill:#000b07; stroke:none;" d="M152 21L153 22L152 21z"/>
<path style="fill:#006f47; stroke:none;" d="M167 21C168.506 21.683 169.315 21.8259 171 22C169.494 21.317 168.685 21.1741 167 21z"/>
<path style="fill:#006540; stroke:none;" d="M96 22C97.2484 22.6848 97.5484 22.7488 99 23C97.7517 22.3152 97.4515 22.2512 96 22z"/>
<path style="fill:#00311f; stroke:none;" d="M106.333 22.6667C106.278 22.7222 106.222 23.7778 106.667 23.3333C106.722 23.2777 106.778 22.2223 106.333 22.6667z"/>
<path style="fill:#002316; stroke:none;" d="M115 22L116 23L115 22z"/>
<path style="fill:#005334; stroke:none;" d="M147 22L148 23L147 22z"/>
<path style="fill:#000e09; stroke:none;" d="M151 22L152 23L151 22z"/>
<path style="fill:#006842; stroke:none;" d="M171 22C172.248 22.6848 172.548 22.7488 174 23C172.752 22.3152 172.452 22.2512 171 22z"/>
<path style="fill:#004f32; stroke:none;" d="M187 22L188 25C188.685 23.7515 188.749 23.4516 189 22L187 22z"/>
<path style="fill:#006740; stroke:none;" d="M93 23C94.2484 23.6848 94.5484 23.7488 96 24C94.7517 23.3152 94.4515 23.2512 93 23z"/>
<path style="fill:#002316; stroke:none;" d="M114 23L115 24L114 23z"/>
<path style="fill:#005334; stroke:none;" d="M146 23L147 24L146 23z"/>
<path style="fill:#000f09; stroke:none;" d="M150 23L151 24L150 23z"/>
<path style="fill:#00643f; stroke:none;" d="M174 23C177.163 24.3274 180.586 23.9996 184 24C180.837 22.6726 177.414 23.0004 174 23z"/>
<path style="fill:#007c4e; stroke:none;" d="M184 23C185.248 23.6848 185.548 23.7488 187 24L187 28C187.779 26.2309 187.912 24.9641 188 23L184 23z"/>
<path style="fill:#000000; stroke:none;" d="M87 24L88 25L87 24z"/>
<path style="fill:#00623e; stroke:none;" d="M90 24C91.2484 24.6848 91.5484 24.7488 93 25C91.7517 24.3152 91.4515 24.2512 90 24z"/>
<path style="fill:#00311f; stroke:none;" d="M105.333 24.6667C105.278 24.7222 105.222 25.7778 105.667 25.3333C105.722 25.2777 105.778 24.2223 105.333 24.6667z"/>
<path style="fill:#002115; stroke:none;" d="M113 24L114 25L113 24z"/>
<path style="fill:#005334; stroke:none;" d="M145 24L146 25L145 24z"/>
<path style="fill:#00150d; stroke:none;" d="M149.333 24.6667C149.278 24.7222 149.222 25.7778 149.667 25.3333C149.722 25.2778 149.778 24.2222 149.333 24.6667z"/>
<path style="fill:#000000; stroke:none;" d="M85 25L86 26L85 25z"/>
<path style="fill:#006a43; stroke:none;" d="M88.6667 25.3333C88.2222 25.7778 89.2778 25.7222 89.3333 25.6667C89.7778 25.2222 88.7222 25.2778 88.6667 25.3333z"/>
<path style="fill:#00301e; stroke:none;" d="M112.333 25.6667C112.278 25.7222 112.222 26.7778 112.667 26.3333C112.722 26.2777 112.778 25.2223 112.333 25.6667z"/>
<path style="fill:#005133; stroke:none;" d="M144 25L145 26L144 25z"/>
<path style="fill:#000201; stroke:none;" d="M188 25L189 26L188 25z"/>
<path style="fill:#000000; stroke:none;" d="M83 26L84 27L83 26z"/>
<path style="fill:#006d45; stroke:none;" d="M86.6667 26.3333C86.2222 26.7778 87.2778 26.7222 87.3333 26.6667C87.7778 26.2222 86.7222 26.2778 86.6667 26.3333z"/>
<path style="fill:#00311f; stroke:none;" d="M104.333 26.6667C104.278 26.7222 104.222 27.7778 104.667 27.3333C104.722 27.2777 104.778 26.2223 104.333 26.6667z"/>
<path style="fill:#000000; stroke:none;" d="M110 26L111 27L110 26z"/>
<path style="fill:#005234; stroke:none;" d="M143 26L144 27L143 26z"/>
<path style="fill:#00160d; stroke:none;" d="M148.333 26.6667C148.278 26.7222 148.222 27.7777 148.667 27.3333C148.722 27.2778 148.778 26.2222 148.333 26.6667z"/>
<path style="fill:#000000; stroke:none;" d="M81 27L82 28L81 27z"/>
<path style="fill:#006d45; stroke:none;" d="M84.6667 27.3333C84.2222 27.7778 85.2778 27.7222 85.3333 27.6667C85.7778 27.2222 84.7222 27.2778 84.6667 27.3333z"/>
<path style="fill:#002517; stroke:none;" d="M111 27L112 28L111 27z"/>
<path style="fill:#005536; stroke:none;" d="M142 27L143 28L142 27z"/>
<path style="fill:#000000; stroke:none;" d="M79 28L75 33C77.0891 31.4443 78.4028 30.5116 79 28z"/>
<path style="fill:#006b44; stroke:none;" d="M82.6667 28.3333C82.2222 28.7778 83.2778 28.7222 83.3333 28.6667C83.7778 28.2222 82.7222 28.2778 82.6667 28.3333z"/>
<path style="fill:#003421; stroke:none;" d="M103.333 28.6667C103.278 28.7222 103.222 29.7778 103.667 29.3333C103.722 29.2777 103.778 28.2223 103.333 28.6667z"/>
<path style="fill:#002e1d; stroke:none;" d="M110.333 28.6667C110.278 28.7222 110.222 29.7778 110.667 29.3333C110.722 29.2777 110.778 28.2223 110.333 28.6667z"/>
<path style="fill:#005b3a; stroke:none;" d="M141 28L142 29L141 28z"/>
<path style="fill:#00150d; stroke:none;" d="M147.333 28.6667C147.278 28.7222 147.222 29.7778 147.667 29.3333C147.722 29.2777 147.778 28.2223 147.333 28.6667z"/>
<path style="fill:#000402; stroke:none;" d="M187 28L188 29L187 28z"/>
<path style="fill:#ffffff; stroke:none;" d="M79 29L76 33C77.7561 31.6232 78.5396 31.1059 79 29z"/>
<path style="fill:#006641; stroke:none;" d="M80 29L80 31C81.6351 30.455 81.455 30.6351 82 29L80 29z"/>
<path style="fill:#00472c; stroke:none;" d="M140.333 29.6667C140.278 29.7222 140.222 30.7778 140.667 30.3333C140.722 30.2777 140.778 29.2223 140.333 29.6667z"/>
<path style="fill:#003521; stroke:none;" d="M79 30L80 31L79 30z"/>
<path style="fill:#003b25; stroke:none;" d="M102 30L102 33C102.696 31.4463 102.696 31.5537 102 30z"/>
<path style="fill:#002e1d; stroke:none;" d="M109 30L109 33C109.696 31.4463 109.696 31.5537 109 30z"/>
<path style="fill:#00170e; stroke:none;" d="M146 30L146 33C146.696 31.4463 146.696 31.5537 146 30z"/>
<path style="fill:#003723; stroke:none;" d="M78 31L79 32L78 31z"/>
<path style="fill:#005436; stroke:none;" d="M139 31L140 32L139 31z"/>
<path style="fill:#005b39; stroke:none;" d="M186.333 31.6667C186.278 31.7222 186.222 32.7778 186.667 32.3333C186.722 32.2777 186.778 31.2223 186.333 31.6667z"/>
<path style="fill:#003522; stroke:none;" d="M77 32L78 33L77 32z"/>
<path style="fill:#00452b; stroke:none;" d="M138.333 32.6667C138.278 32.7222 138.222 33.7778 138.667 33.3333C138.722 33.2777 138.778 32.2223 138.333 32.6667z"/>
<path style="fill:#004a2f; stroke:none;" d="M76.3333 33.6667C76.2778 33.7222 76.2222 34.7778 76.6667 34.3333C76.7223 34.2777 76.7777 33.2223 76.3333 33.6667z"/>
<path style="fill:#00301e; stroke:none;" d="M101 33L101 37C101.71 35.2405 101.71 34.7595 101 33z"/>
<path style="fill:#003823; stroke:none;" d="M108 33L108 37C108.71 35.2405 108.71 34.7595 108 33z"/>
<path style="fill:#001910; stroke:none;" d="M145 33L145 36C145.696 34.4463 145.696 34.5537 145 33z"/>
<path style="fill:#00754b; stroke:none;" d="M185 33L185 44C186.431 40.59 186.431 36.41 185 33z"/>
<path style="fill:#000503; stroke:none;" d="M186 33L187 34L186 33z"/>
<path style="fill:#000000; stroke:none;" d="M74 34L75 35L74 34z"/>
<path style="fill:#005637; stroke:none;" d="M137 34L138 35L137 34z"/>
<path style="fill:#00472d; stroke:none;" d="M75 35L75 38C75.6961 36.4463 75.6961 36.5537 75 35z"/>
<path style="fill:#00492f; stroke:none;" d="M136.333 35.6667C136.278 35.7222 136.222 36.7778 136.667 36.3333C136.722 36.2778 136.778 35.2223 136.333 35.6667z"/>
<path style="fill:#000000; stroke:none;" d="M106 36L107 37L106 36z"/>
<path style="fill:#00170f; stroke:none;" d="M144.333 36.6667C144.278 36.7222 144.222 37.7778 144.667 37.3333C144.722 37.2777 144.778 36.2223 144.333 36.6667z"/>
<path style="fill:#000000; stroke:none;" d="M73 37L74 38L73 37z"/>
<path style="fill:#00311f; stroke:none;" d="M100 37L100 43C100.951 40.7147 100.951 39.2853 100 37z"/>
<path style="fill:#003b25; stroke:none;" d="M107 37L108 68C110.135 62.911 108.272 57.3184 108.039 52C107.825 47.1158 108.911 41.5552 107 37z"/>
<path style="fill:#00482e; stroke:none;" d="M135.333 37.6667C135.278 37.7222 135.222 38.7778 135.667 38.3333C135.722 38.2777 135.778 37.2223 135.333 37.6667z"/>
<path style="fill:#005133; stroke:none;" d="M74 38L74 44C74.9511 41.7147 74.9511 40.2853 74 38z"/>
<path style="fill:#00955e; stroke:none;" d="M75 38L74 60C76.0463 55.1235 77.0257 42.873 75 38z"/>
<path style="fill:#001910; stroke:none;" d="M143 38L143 41C143.696 39.4463 143.696 39.5537 143 38z"/>
<path style="fill:#004a2f; stroke:none;" d="M134.333 39.6667C134.278 39.7222 134.222 40.7778 134.667 40.3333C134.722 40.2778 134.778 39.2222 134.333 39.6667z"/>
<path style="fill:#001b11; stroke:none;" d="M66 43L69 43C68.2321 41.6858 68.3142 41.7679 67 41C65.7003 41.6498 66 41.1468 66 43z"/>
<path style="fill:#004e31; stroke:none;" d="M133 41L133 44C133.696 42.4463 133.696 42.5537 133 41z"/>
<path style="fill:#000000; stroke:none;" d="M134 41L135 42L134 41z"/>
<path style="fill:#00180f; stroke:none;" d="M142.333 41.6667C142.278 41.7222 142.222 42.7778 142.667 42.3333C142.722 42.2777 142.778 41.2223 142.333 41.6667z"/>
<path style="fill:#000000; stroke:none;" d="M64 42L61 46C62.756 44.6232 63.5396 44.1059 64 42z"/>
<path style="fill:#009760; stroke:none;" d="M67 42C53.9806 56.145 37.0661 74.6878 37.0008 95C36.9737 103.428 38.6576 113.991 47 118C44.2036 113.617 40.8673 109.12 39.5571 104C35.5891 88.495 44.3052 73.7227 53.4244 62C56.2676 58.345 59.0085 54.5547 62.0039 51.0239C63.0831 49.7518 64.782 47.2524 66.7755 47.6312C70.4936 48.3376 69.9864 57.3398 69.9992 60C70.052 70.947 67.5785 85.0133 78 92C75.1509 85.4766 71.6081 80.3925 71.0895 73C70.4224 63.4904 73.7676 49.7737 67 42z"/>
<path style="fill:#ffffff; stroke:none;" d="M64 43C62.8137 44.1863 62.4721 44.5838 62 46C63.5481 44.7383 63.8079 44.8061 64 43z"/>
<path style="fill:#003924; stroke:none;" d="M65 43L66 44L65 43z"/>
<path style="fill:#002115; stroke:none;" d="M69 43L69 46C69.6961 44.4463 69.6961 44.5537 69 43z"/>
<path style="fill:#000000; stroke:none;" d="M72 43L73 44L72 43z"/>
<path style="fill:#003a24; stroke:none;" d="M99 43L98 64C100.152 58.8721 101.175 48.1839 99 43z"/>
<path style="fill:#001910; stroke:none;" d="M141 43L141 46C141.696 44.4463 141.696 44.5537 141 43z"/>
<path style="fill:#003622; stroke:none;" d="M64 44L65 45L64 44z"/>
<path style="fill:#005335; stroke:none;" d="M73 44L73 60C74.8123 55.6811 74.8123 48.3189 73 44z"/>
<path style="fill:#004a2f; stroke:none;" d="M132.333 44.6667C132.278 44.7222 132.222 45.7778 132.667 45.3333C132.722 45.2778 132.778 44.2222 132.333 44.6667z"/>
<path style="fill:#000000; stroke:none;" d="M133 44L134 45L133 44z"/>
<path style="fill:#008252; stroke:none;" d="M186 44L186 49C186.83 46.9695 186.83 46.0305 186 44z"/>
<path style="fill:#003220; stroke:none;" d="M63 45L64 46L63 45z"/>
<path style="fill:#005536; stroke:none;" d="M62.3333 46.6667C62.2777 46.7223 62.2222 47.7777 62.6667 47.3333C62.7222 47.2778 62.7778 46.2222 62.3333 46.6667z"/>
<path style="fill:#00a76a; stroke:none;" d="M67 132C74.0237 134.132 73.2141 146.944 76.8302 153C84.6075 166.025 103.171 169.088 117 165C112.675 163.185 107.626 164.249 103 163.91C97.1097 163.478 90.739 161.403 86.0185 157.816C76.7475 150.769 75.1791 140.112 73.3935 129.424C72.8701 126.292 74.6979 123.106 72.3927 120.318C70.1274 117.578 66.168 118.04 63 117.996C57.9115 117.925 52.2906 117.478 48.5177 113.656C36.4439 101.425 42.1774 86.1445 48.5764 73C52.3827 65.1812 57.6572 56.5053 66 53C66 65.7923 65.1874 78.1922 71 90C71.583 86.7478 70.1144 83.3815 70.0154 80C69.7913 72.3387 70.1735 64.6624 69.9853 57C69.9226 54.4446 70.0962 48.6658 67.4506 47.1759C64.0763 45.2756 59.6787 52.9752 58.1188 55C50.9113 64.3555 41.4467 74.9211 39.3287 87C37.6329 96.6713 38.4458 110.648 46.6304 117.411C51.1673 121.16 58.494 120.899 64 121.005C65.9896 121.043 69.7546 120.801 70.4591 123.314C71.1844 125.902 67.7386 129.51 67 132z"/>
<path style="fill:#002819; stroke:none;" d="M70 46L70 51C70.8299 48.9695 70.8299 48.0305 70 46z"/>
<path style="fill:#00422a; stroke:none;" d="M131 46L131 50C131.71 48.2405 131.71 47.7595 131 46z"/>
<path style="fill:#000201; stroke:none;" d="M132 46L133 47L132 46z"/>
<path style="fill:#001c11; stroke:none;" d="M140 46L140 49C140.696 47.4463 140.696 47.5537 140 46z"/>
<path style="fill:#000000; stroke:none;" d="M60 47L57 51C58.7561 49.6231 59.5396 49.1059 60 47z"/>
<path style="fill:#ffffff; stroke:none;" d="M60 48C58.8137 49.1863 58.4721 49.5838 58 51C59.5481 49.7383 59.808 49.8061 60 48z"/>
<path style="fill:#003e27; stroke:none;" d="M61 48L62 49L61 48z"/>
<path style="fill:#003823; stroke:none;" d="M60 49L61 50L60 49z"/>
<path style="fill:#001a10; stroke:none;" d="M139.333 49.6667C139.278 49.7222 139.222 50.7778 139.667 50.3333C139.722 50.2777 139.778 49.2223 139.333 49.6667z"/>
<path style="fill:#006d45; stroke:none;" d="M187 49L187 52C187.696 50.4463 187.696 50.5537 187 49z"/>
<path style="fill:#003320; stroke:none;" d="M59 50L60 51L59 50z"/>
<path style="fill:#005637; stroke:none;" d="M130 50L130 55C130.83 52.9695 130.83 52.0305 130 50z"/>
<path style="fill:#000301; stroke:none;" d="M131 50L132 51L131 50z"/>
<path style="fill:#005737; stroke:none;" d="M58.3333 51.6667C58.2777 51.7223 58.2222 52.7778 58.6667 52.3333C58.7222 52.2778 58.7778 51.2222 58.3333 51.6667z"/>
<path style="fill:#002718; stroke:none;" d="M71 51L71 77C73.477 71.097 73.477 56.903 71 51z"/>
<path style="fill:#00180f; stroke:none;" d="M138.333 51.6667C138.278 51.7222 138.222 52.7778 138.667 52.3333C138.722 52.2778 138.778 51.2222 138.333 51.6667z"/>
<path style="fill:#000000; stroke:none;" d="M56 52L53 56C54.7561 54.6231 55.5396 54.1059 56 52z"/>
<path style="fill:#006b44; stroke:none;" d="M188 52L188 55C188.696 53.4463 188.696 53.5537 188 52z"/>
<path style="fill:#ffffff; stroke:none;" d="M56 53C54.8137 54.1863 54.4721 54.5838 54 56C55.5481 54.7383 55.808 54.8061 56 53z"/>
<path style="fill:#003e27; stroke:none;" d="M57 53L58 54L57 53z"/>
<path style="fill:#00180f; stroke:none;" d="M137.333 53.6667C137.278 53.7222 137.222 54.7778 137.667 54.3333C137.722 54.2778 137.778 53.2222 137.333 53.6667z"/>
<path style="fill:#003622; stroke:none;" d="M56 54L57 55L56 54z"/>
<path style="fill:#000000; stroke:none;" d="M132 54L133 55L132 54z"/>
<path style="fill:#00321f; stroke:none;" d="M55 55L56 56L55 55z"/>
<path style="fill:#004e31; stroke:none;" d="M131.333 55.6667C131.278 55.7222 131.222 56.7778 131.667 56.3333C131.722 56.2777 131.778 55.2223 131.333 55.6667z"/>
<path style="fill:#000d08; stroke:none;" d="M136 55L137 56L136 55z"/>
<path style="fill:#005837; stroke:none;" d="M54 56L54 58C55.6352 57.4549 55.4549 57.6352 56 56L54 56z"/>
<path style="fill:#000000; stroke:none;" d="M133 56L134 57L133 56z"/>
<path style="fill:#000c08; stroke:none;" d="M135 56L136 57L135 56z"/>
<path style="fill:#000000; stroke:none;" d="M52 57L49 61C50.7561 59.6231 51.5396 59.1059 52 57z"/>
<path style="fill:#003723; stroke:none;" d="M132 57L133 58L132 57z"/>
<path style="fill:#ffffff; stroke:none;" d="M133 57L134 58L133 57z"/>
<path style="fill:#000f09; stroke:none;" d="M134 57L135 58L134 57z"/>
<path style="fill:#ffffff; stroke:none;" d="M52 58C50.8137 59.1863 50.4721 59.5838 50 61C51.5481 59.7383 51.808 59.8061 52 58z"/>
<path style="fill:#003a25; stroke:none;" d="M53 58L54 59L53 58z"/>
<path style="fill:#00784c; stroke:none;" d="M133.667 58.3333C133.222 58.7778 134.278 58.7222 134.333 58.6667C134.778 58.2222 133.722 58.2778 133.667 58.3333z"/>
<path style="fill:#003521; stroke:none;" d="M52 59L53 60L52 59z"/>
<path style="fill:#008452; stroke:none;" d="M190 59L190 71C191.512 67.3956 191.512 62.6043 190 59z"/>
<path style="fill:#00311f; stroke:none;" d="M51 60L52 61L51 60z"/>
<path style="fill:#000704; stroke:none;" d="M73 60L74 61L73 60z"/>
<path style="fill:#00482e; stroke:none;" d="M74 60L74 66C74.9511 63.7147 74.9511 62.2853 74 60z"/>
<path style="fill:#009860; stroke:none;" d="M75 60C75.1156 65.5698 76.3649 70.8292 78.4529 76C80.8706 81.9871 85.6545 88.1367 78 92C83.0133 93.7433 84.4268 89.3741 83.7863 84.9992C82.4805 76.0807 77.0263 69.5194 77 60L75 60z"/>
<path style="fill:#005838; stroke:none;" d="M50 61L50 63C51.6352 62.4549 51.4549 62.6352 52 61L50 61z"/>
<path style="fill:#000000; stroke:none;" d="M48 62C46.8137 63.1863 46.4721 63.5838 46 65C47.5481 63.7383 47.808 63.8061 48 62z"/>
<path style="fill:#ffffff; stroke:none;" d="M48 63L47 65C48.2628 64.0286 48.3919 64.3062 48 63z"/>
<path style="fill:#003723; stroke:none;" d="M49 63L50 64L49 63z"/>
<path style="fill:#000000; stroke:none;" d="M100 63L101 64L100 63z"/>
<path style="fill:#00311f; stroke:none;" d="M48 64L49 65L48 64z"/>
<path style="fill:#003b25; stroke:none;" d="M99 64L99 68C99.7102 66.2405 99.7102 65.7595 99 64z"/>
<path style="fill:#005a39; stroke:none;" d="M47 65L47 67C48.6352 66.4549 48.4549 66.6352 49 65L47 65z"/>
<path style="fill:#000000; stroke:none;" d="M45 66L44 68C45.2628 67.0287 45.3919 67.3063 45 66z"/>
<path style="fill:#000905; stroke:none;" d="M74 66L75 67L74 66z"/>
<path style="fill:#005133; stroke:none;" d="M75 66L75 70C75.7102 68.2405 75.7102 67.7595 75 66z"/>
<path style="fill:#ffffff; stroke:none;" d="M45 67L46 68L45 67z"/>
<path style="fill:#003421; stroke:none;" d="M46 67L47 68L46 67z"/>
<path style="fill:#000000; stroke:none;" d="M101 67L102 68L101 67M106 67L107 68L106 67z"/>
<path style="fill:#005e3b; stroke:none;" d="M45.3333 68.6667C45.2778 68.7222 45.2222 69.7778 45.6667 69.3333C45.7222 69.2778 45.7778 68.2222 45.3333 68.6667z"/>
<path style="fill:#003421; stroke:none;" d="M100.333 68.6667C100.278 68.7222 100.222 69.7778 100.667 69.3333C100.722 69.2777 100.778 68.2223 100.333 68.6667z"/>
<path style="fill:#002f1e; stroke:none;" d="M107.333 68.6667C107.278 68.7222 107.222 69.7778 107.667 69.3333C107.722 69.2777 107.778 68.2223 107.333 68.6667z"/>
<path style="fill:#000000; stroke:none;" d="M43 69L42 71C43.2628 70.0287 43.3919 70.3063 43 69M102 69L103 70L102 69M105 69L106 70L105 69z"/>
<path style="fill:#ffffff; stroke:none;" d="M43 70L44 71L43 70z"/>
<path style="fill:#003421; stroke:none;" d="M44 70L45 71L44 70z"/>
<path style="fill:#000906; stroke:none;" d="M75 70L76 71L75 70z"/>
<path style="fill:#004b2f; stroke:none;" d="M76 70L76 73C76.6961 71.4463 76.6961 71.5537 76 70z"/>
<path style="fill:#003622; stroke:none;" d="M101.333 70.6667C101.278 70.7222 101.222 71.7778 101.667 71.3333C101.722 71.2778 101.778 70.2223 101.333 70.6667z"/>
<path style="fill:#00321f; stroke:none;" d="M106.333 70.6667C106.278 70.7222 106.222 71.7778 106.667 71.3333C106.722 71.2777 106.778 70.2223 106.333 70.6667z"/>
<path style="fill:#005b3a; stroke:none;" d="M43.3333 71.6667C43.2778 71.7222 43.2222 72.7778 43.6667 72.3333C43.7222 72.2778 43.7778 71.2222 43.3333 71.6667z"/>
<path style="fill:#000000; stroke:none;" d="M103.667 71.3333C103.222 71.7778 104.278 71.7222 104.333 71.6667C104.778 71.2222 103.722 71.2778 103.667 71.3333z"/>
<path style="fill:#005f3c; stroke:none;" d="M190.333 71.6667C190.278 71.7222 190.222 72.7778 190.667 72.3333C190.722 72.2778 190.778 71.2222 190.333 71.6667z"/>
<path style="fill:#000000; stroke:none;" d="M41 72L42 73L41 72z"/>
<path style="fill:#001e13; stroke:none;" d="M102 72L103 73L102 72z"/>
<path style="fill:#ffffff; stroke:none;" d="M103.667 72.3333C103.222 72.7778 104.278 72.7222 104.333 72.6667C104.778 72.2222 103.722 72.2778 103.667 72.3333z"/>
<path style="fill:#001d12; stroke:none;" d="M105 72L106 73L105 72z"/>
<path style="fill:#00623e; stroke:none;" d="M42.3333 73.6667C42.2778 73.7222 42.2222 74.7778 42.6667 74.3333C42.7222 74.2778 42.7778 73.2222 42.3333 73.6667z"/>
<path style="fill:#000b07; stroke:none;" d="M76 73L77 74L76 73z"/>
<path style="fill:#004a2e; stroke:none;" d="M77 73L77 76C77.6961 74.4463 77.6961 74.5537 77 73z"/>
<path style="fill:#004c31; stroke:none;" d="M102 73C103.248 73.6848 103.548 73.7488 105 74C103.752 73.3152 103.452 73.2512 102 73z"/>
<path style="fill:#00180f; stroke:none;" d="M190 73L191 74L190 73z"/>
<path style="fill:#000000; stroke:none;" d="M40 74L41 75L40 74z"/>
<path style="fill:#006540; stroke:none;" d="M41.3333 75.6667C41.2778 75.7222 41.2222 76.7778 41.6667 76.3333C41.7223 76.2777 41.7778 75.2222 41.3333 75.6667z"/>
<path style="fill:#001a10; stroke:none;" d="M189 75L190 76L189 75z"/>
<path style="fill:#000000; stroke:none;" d="M39 76L40 77L39 76z"/>
<path style="fill:#000b07; stroke:none;" d="M77 76L78 77L77 76z"/>
<path style="fill:#00452b; stroke:none;" d="M78 76C78.8693 80.8765 81.4908 85.0284 82 90C83.9962 85.0944 81.1711 79.8278 78 76z"/>
<path style="fill:#009860; stroke:none;" d="M188 97L194 93C188.461 91.0186 179.943 94.3956 174 94.8156C161.169 95.7223 139.371 91.171 133 79C150.36 73.5831 168.752 86.2781 186 79C181.268 77.6001 175.168 80.2648 170 79.9105C160.103 79.2321 151.11 75.9351 141 76.0008C135.893 76.0339 127.631 78.2949 133.319 84.696C141.452 93.8495 158.604 96.0183 170 96C176.152 95.9901 182.393 93.8828 188 97z"/>
<path style="fill:#002014; stroke:none;" d="M188 76L189 77L188 76z"/>
<path style="fill:#006540; stroke:none;" d="M40.3333 77.6667C40.2778 77.7222 40.2222 78.7778 40.6667 78.3333C40.7223 78.2777 40.7778 77.2222 40.3333 77.6667z"/>
<path style="fill:#002618; stroke:none;" d="M72 77L72 82C72.8299 79.9695 72.8299 79.0305 72 77z"/>
<path style="fill:#008655; stroke:none;" d="M136 77C139.697 78.5515 144.017 78 148 78C144.303 76.4485 139.983 77 136 77z"/>
<path style="fill:#002316; stroke:none;" d="M187 77L188 78L187 77z"/>
<path style="fill:#000000; stroke:none;" d="M38 78L39 79L38 78z"/>
<path style="fill:#002719; stroke:none;" d="M135 78C139.974 80.0872 146.638 79 152 79C147.026 76.9128 140.362 78 135 78z"/>
<path style="fill:#002316; stroke:none;" d="M186 78L187 79L186 78z"/>
<path style="fill:#00633f; stroke:none;" d="M39.3333 79.6667C39.2778 79.7222 39.2222 80.7778 39.6667 80.3333C39.7223 80.2777 39.7778 79.2222 39.3333 79.6667z"/>
<path style="fill:#000000; stroke:none;" d="M77 79L78 80L77 79z"/>
<path style="fill:#002316; stroke:none;" d="M133 79L133 81C134.635 80.455 134.455 80.6352 135 79L133 79z"/>
<path style="fill:#002a1a; stroke:none;" d="M152 79C154.332 79.9845 156.457 79.9813 159 80C156.668 79.0155 154.543 79.0187 152 79z"/>
<path style="fill:#001f13; stroke:none;" d="M185 79L186 80L185 79z"/>
<path style="fill:#000000; stroke:none;" d="M37 80L38 81L37 80z"/>
<path style="fill:#ffffff; stroke:none;" d="M134 80C134.936 81.9486 135.392 82.5502 137 84C136.041 82.4031 135.274 81.3411 134 80z"/>
<path style="fill:#000000; stroke:none;" d="M135.333 80.6667C135.278 80.7223 135.222 81.7778 135.667 81.3333C135.722 81.2778 135.778 80.2222 135.333 80.6667z"/>
<path style="fill:#002d1c; stroke:none;" d="M159 80C161.052 80.8743 162.747 80.9528 165 81C162.948 80.1257 161.253 80.0472 159 80z"/>
<path style="fill:#002618; stroke:none;" d="M182 80C183.248 80.6848 183.548 80.7488 185 81C183.752 80.3152 183.452 80.2512 182 80z"/>
<path style="fill:#005b39; stroke:none;" d="M38 81L38 84C38.6961 82.4463 38.6961 82.5537 38 81z"/>
<path style="fill:#000000; stroke:none;" d="M74 81L75 82L74 81M78 81L79 82L78 81z"/>
<path style="fill:#00311f; stroke:none;" d="M165 81C169.974 83.0872 176.638 82 182 82C177.026 79.9128 170.362 81 165 81z"/>
<path style="fill:#002115; stroke:none;" d="M73.3333 82.6667C73.2778 82.7222 73.2222 83.7778 73.6667 83.3333C73.7222 83.2778 73.7778 82.2222 73.3333 82.6667z"/>
<path style="fill:#002718; stroke:none;" d="M134 82L135 83L134 82z"/>
<path style="fill:#000000; stroke:none;" d="M136 82L137 83L136 82M36 83L37 84L36 83M79 83L80 84L79 83z"/>
<path style="fill:#002517; stroke:none;" d="M135 83L136 84L135 83z"/>
<path style="fill:#000000; stroke:none;" d="M137 83L138 84L137 83z"/>
<path style="fill:#007148; stroke:none;" d="M37 84L37 88C37.7102 86.2405 37.7102 85.7595 37 84z"/>
<path style="fill:#002215; stroke:none;" d="M74 84L74 87C74.6961 85.4463 74.6961 85.5537 74 84z"/>
<path style="fill:#00281a; stroke:none;" d="M136 84L137 85L136 84z"/>
<path style="fill:#000000; stroke:none;" d="M139 84L140 85L139 84M80 85L81 86L80 85z"/>
<path style="fill:#002316; stroke:none;" d="M137.667 85.3333C137.222 85.7777 138.278 85.7223 138.333 85.6667C138.778 85.2222 137.722 85.2778 137.667 85.3333z"/>
<path style="fill:#000000; stroke:none;" d="M141 85L142 86L141 85M76 86L77 87L76 86z"/>
<path style="fill:#002316; stroke:none;" d="M139.667 86.3333C139.222 86.7777 140.278 86.7222 140.333 86.6667C140.778 86.2222 139.722 86.2778 139.667 86.3333z"/>
<path style="fill:#000000; stroke:none;" d="M143 86L144 87L143 86M35 87L36 88L35 87z"/>
<path style="fill:#000c07; stroke:none;" d="M75 87L76 88L75 87z"/>
<path style="fill:#002517; stroke:none;" d="M141.667 87.3333C141.222 87.7777 142.278 87.7223 142.333 87.6667C142.778 87.2222 141.722 87.2778 141.667 87.3333z"/>
<path style="fill:#000000; stroke:none;" d="M146 87L147 88L146 87z"/>
<path style="fill:#006d45; stroke:none;" d="M36 88L36 103C37.7404 98.8523 37.7404 92.1477 36 88z"/>
<path style="fill:#000a06; stroke:none;" d="M76 88L77 89L76 88z"/>
<path style="fill:#003b25; stroke:none;" d="M143 88C144.248 88.6848 144.548 88.7488 146 89C144.752 88.3152 144.452 88.2512 143 88z"/>
<path style="fill:#000000; stroke:none;" d="M148 88L149 89L148 88z"/>
<path style="fill:#000a06; stroke:none;" d="M77 89L78 90L77 89z"/>
<path style="fill:#000000; stroke:none;" d="M79.6667 89.3333C79.2222 89.7778 80.2778 89.7222 80.3333 89.6667C80.7778 89.2222 79.7222 89.2778 79.6667 89.3333z"/>
<path style="fill:#002618; stroke:none;" d="M146.667 89.3333C146.222 89.7777 147.278 89.7222 147.333 89.6667C147.778 89.2222 146.722 89.2778 146.667 89.3333z"/>
<path style="fill:#000000; stroke:none;" d="M151 89L152 90L151 89z"/>
<path style="fill:#002f1e; stroke:none;" d="M190 91C193.726 92.9334 196.803 92.7213 199 89L190 91z"/>
<path style="fill:#000b07; stroke:none;" d="M78 90L79 91L78 90z"/>
<path style="fill:#ffffff; stroke:none;" d="M79.6667 90.3333C79.2222 90.7778 80.2778 90.7222 80.3333 90.6667C80.7778 90.2222 79.7222 90.2778 79.6667 90.3333z"/>
<path style="fill:#001e13; stroke:none;" d="M81 90L82 91L81 90z"/>
<path style="fill:#003e27; stroke:none;" d="M148 90C149.248 90.6848 149.548 90.7488 151 91C149.752 90.3152 149.452 90.2512 148 90z"/>
<path style="fill:#000000; stroke:none;" d="M155 90L156 91L155 90z"/>
<path style="fill:#00472d; stroke:none;" d="M78 91C79.2484 91.6848 79.5484 91.7488 81 92C79.7516 91.3152 79.4516 91.2512 78 91z"/>
<path style="fill:#004129; stroke:none;" d="M151 91C152.506 91.683 153.315 91.8259 155 92C153.494 91.317 152.685 91.1741 151 91z"/>
<path style="fill:#000000; stroke:none;" d="M160 91L161 92L160 91z"/>
<path style="fill:#003522; stroke:none;" d="M155 92C156.769 92.7789 158.036 92.9124 160 93C158.231 92.2211 156.964 92.0876 155 92z"/>
<path style="fill:#000000; stroke:none;" d="M168 92L169 93L168 92z"/>
<path style="fill:#003723; stroke:none;" d="M186 92C187.506 92.683 188.315 92.8259 190 93C188.494 92.317 187.685 92.1741 186 92z"/>
<path style="fill:#003d26; stroke:none;" d="M160 93C162.613 94.0977 165.165 93.9928 168 94C165.387 92.9023 162.836 93.0072 160 93z"/>
<path style="fill:#003a24; stroke:none;" d="M177 93C179.89 94.2129 182.874 93.9983 186 94C183.11 92.787 180.126 93.0017 177 93z"/>
<path style="fill:#001f14; stroke:none;" d="M192.667 93.3333C192.222 93.7777 193.278 93.7222 193.333 93.6667C193.778 93.2222 192.722 93.2778 192.667 93.3333z"/>
<path style="fill:#00452b; stroke:none;" d="M168 94C170.89 95.2129 173.874 94.9983 177 95C174.11 93.7871 171.126 94.0017 168 94z"/>
<path style="fill:#002718; stroke:none;" d="M191 94L192 95L191 94z"/>
<path style="fill:#002215; stroke:none;" d="M189.667 95.3333C189.222 95.7777 190.278 95.7223 190.333 95.6667C190.778 95.2222 189.722 95.2778 189.667 95.3333z"/>
<path style="fill:#002c1b; stroke:none;" d="M188 96L189 97L188 96z"/>
<path style="fill:#00291a; stroke:none;" d="M187 97L188 98L187 97z"/>
<path style="fill:#002719; stroke:none;" d="M186 98L187 99L186 98M185 99L186 100L185 99z"/>
<path style="fill:#00291a; stroke:none;" d="M184 100L185 101L184 100z"/>
<path style="fill:#002a1b; stroke:none;" d="M183 101L184 102L183 101z"/>
<path style="fill:#00301e; stroke:none;" d="M182 102L183 103L182 102z"/>
<path style="fill:#000000; stroke:none;" d="M35 103L36 104L35 103z"/>
<path style="fill:#006741; stroke:none;" d="M37 103L37 106C37.6961 104.446 37.6961 104.554 37 103z"/>
<path style="fill:#009d63; stroke:none;" d="M145 117L145 115C137.893 114.921 127.568 111.505 124 105C129.772 105.264 134.401 108.271 140 109C137.052 105.9 132.307 104.123 128.005 103.576C126.041 103.327 123.286 103.668 122.921 106.109C122.49 108.991 125.937 110.773 128.005 111.88C133.812 114.987 138.37 116.981 145 117z"/>
<path style="fill:#002c1c; stroke:none;" d="M181 104L182 105L181 104z"/>
<path style="fill:#004e31; stroke:none;" d="M124 105L124 108L126 108L126 105L124 105z"/>
<path style="fill:#008b58; stroke:none;" d="M126 105C128.311 106.393 130.309 106.765 133 107C130.689 105.607 128.691 105.235 126 105z"/>
<path style="fill:#006f46; stroke:none;" d="M180 105L179 110C180.318 108.074 180.651 107.234 180 105z"/>
<path style="fill:#002316; stroke:none;" d="M37 106L38 107L37 106z"/>
<path style="fill:#ffffff; stroke:none;" d="M125 106C129.306 110.178 136.138 112.134 142 113C137.025 109.697 130.647 107.91 125 106z"/>
<path style="fill:#002f1d; stroke:none;" d="M126 106C127.248 106.685 127.548 106.749 129 107C127.752 106.315 127.452 106.251 126 106z"/>
<path style="fill:#000000; stroke:none;" d="M36 107L37 108L36 107z"/>
<path style="fill:#005939; stroke:none;" d="M38 107C38.3972 109.301 38.957 110.905 40 113C40.4441 110.417 39.6306 109.043 38 107z"/>
<path style="fill:#001d12; stroke:none;" d="M129 107C130.751 108.255 131.857 108.614 134 109C132.25 107.745 131.143 107.386 129 107z"/>
<path style="fill:#007147; stroke:none;" d="M132 107C133.458 108.081 134.248 108.436 136 109C134.457 107.733 133.952 107.511 132 107z"/>
<path style="fill:#00110b; stroke:none;" d="M126.667 108.333C126.222 108.778 127.278 108.722 127.333 108.667C127.778 108.222 126.722 108.278 126.667 108.333z"/>
<path style="fill:#003420; stroke:none;" d="M127.667 109.333C127.222 109.778 128.278 109.722 128.333 109.667C128.778 109.222 127.722 109.278 127.667 109.333z"/>
<path style="fill:#000301; stroke:none;" d="M129.667 109.333C129.222 109.778 130.278 109.722 130.333 109.667C130.778 109.222 129.722 109.278 129.667 109.333z"/>
<path style="fill:#002718; stroke:none;" d="M134 109C135.248 109.685 135.548 109.749 137 110C135.752 109.315 135.452 109.251 134 109z"/>
<path style="fill:#008151; stroke:none;" d="M137 109L144 114L137 114C140.163 115.327 143.586 115 147 115C144.799 110.708 141.724 109.317 137 109z"/>
<path style="fill:#000000; stroke:none;" d="M37 110L38 111L37 110z"/>
<path style="fill:#003a24; stroke:none;" d="M129.667 110.333C129.222 110.778 130.278 110.722 130.333 110.667C130.778 110.222 129.722 110.278 129.667 110.333z"/>
<path style="fill:#000905; stroke:none;" d="M131.667 110.333C131.222 110.778 132.278 110.722 132.333 110.667C132.778 110.222 131.722 110.278 131.667 110.333z"/>
<path style="fill:#003520; stroke:none;" d="M137.667 110.333C137.222 110.778 138.278 110.722 138.333 110.667C138.778 110.222 137.722 110.278 137.667 110.333z"/>
<path style="fill:#006943; stroke:none;" d="M178 110L178 113C178.696 111.446 178.696 111.554 178 110z"/>
<path style="fill:#00291a; stroke:none;" d="M179 110L180 111L179 110z"/>
<path style="fill:#00452b; stroke:none;" d="M131.667 111.333C131.222 111.778 132.278 111.722 132.333 111.667C132.778 111.222 131.722 111.278 131.667 111.333z"/>
<path style="fill:#002316; stroke:none;" d="M133 111C135.042 112.416 136.511 112.745 139 113C136.987 111.775 135.341 111.355 133 111z"/>
<path style="fill:#002c1b; stroke:none;" d="M139 111C140.248 111.685 140.548 111.749 142 112C140.752 111.315 140.452 111.251 139 111z"/>
<path style="fill:#000000; stroke:none;" d="M38 112C38.5451 113.635 38.3648 113.455 40 114C39.4549 112.365 39.6352 112.545 38 112z"/>
<path style="fill:#ffffff; stroke:none;" d="M39 112L40 113L39 112z"/>
<path style="fill:#002618; stroke:none;" d="M140 113C142.046 113.751 142.596 113.656 144 112L140 113z"/>
<path style="fill:#004d30; stroke:none;" d="M137 113C138.248 113.685 138.548 113.749 140 114C138.752 113.315 138.452 113.251 137 113z"/>
<path style="fill:#002417; stroke:none;" d="M41 114L42 115L41 114z"/>
<path style="fill:#002b1b; stroke:none;" d="M177 114L178 115L177 114z"/>
<path style="fill:#000000; stroke:none;" d="M40 115C41.5489 117.136 42.8643 118.451 45 120C43.4511 117.864 42.1357 116.549 40 115z"/>
<path style="fill:#ffffff; stroke:none;" d="M41 115C42.3303 116.753 43.2475 117.67 45 119C43.6697 117.247 42.7525 116.33 41 115z"/>
<path style="fill:#002819; stroke:none;" d="M42 115L43 116L42 115z"/>
<path style="fill:#00321f; stroke:none;" d="M176 115L177 116L176 115z"/>
<path style="fill:#00291a; stroke:none;" d="M43 116L44 117L43 116z"/>
<path style="fill:#003924; stroke:none;" d="M175 116L176 117L175 116z"/>
<path style="fill:#ffffff; stroke:none;" d="M176 116L177 117L176 116z"/>
<path style="fill:#000000; stroke:none;" d="M177 116L178 117L177 116z"/>
<path style="fill:#00291a; stroke:none;" d="M44 117L45 118L44 117z"/>
<path style="fill:#000000; stroke:none;" d="M176 117L177 118L176 117z"/>
<path style="fill:#00452b; stroke:none;" d="M45.6667 118.333C45.2222 118.778 46.2778 118.722 46.3333 118.667C46.7778 118.222 45.7222 118.278 45.6667 118.333z"/>
<path style="fill:#002b1b; stroke:none;" d="M174 118L175 119L174 118z"/>
<path style="fill:#002e1d; stroke:none;" d="M47 119L48 120L47 119z"/>
<path style="fill:#00945e; stroke:none;" d="M48 119C55.0724 123.444 65.3033 119.183 71 125C71.54 122.596 70.5178 121.569 67.9406 121.147C61.5901 120.108 54.4328 119.561 48 119z"/>
<path style="fill:#002e1d; stroke:none;" d="M173 119L172 121C173.263 120.029 173.392 120.306 173 119z"/>
<path style="fill:#000000; stroke:none;" d="M46 120C46.5451 121.635 46.3648 121.455 48 122C47.4549 120.365 47.6352 120.545 46 120z"/>
<path style="fill:#ffffff; stroke:none;" d="M47 120L48 121L47 120z"/>
<path style="fill:#004029; stroke:none;" d="M48 120C49.2484 120.685 49.5484 120.749 51 121C49.7517 120.315 49.4516 120.251 48 120z"/>
<path style="fill:#ffffff; stroke:none;" d="M173 120L169 125C171.089 123.444 172.403 122.512 173 120z"/>
<path style="fill:#000000; stroke:none;" d="M174 120L175 121L174 120z"/>
<path style="fill:#00472d; stroke:none;" d="M51 121C52.2483 121.685 52.5484 121.749 54 122C52.7516 121.315 52.4516 121.251 51 121z"/>
<path style="fill:#00301e; stroke:none;" d="M171 121L172 122L171 121z"/>
<path style="fill:#000000; stroke:none;" d="M173 121L174 122L173 121M50 122L51 123L50 122z"/>
<path style="fill:#004f31; stroke:none;" d="M54 122C58.7238 123.982 64.9098 123 70 123C65.2762 121.018 59.0902 122 54 122z"/>
<path style="fill:#00301e; stroke:none;" d="M170 122L171 123L170 122z"/>
<path style="fill:#000000; stroke:none;" d="M172 122L173 123L172 122M53 123L54 124L53 123z"/>
<path style="fill:#006d45; stroke:none;" d="M70.3333 123.667C70.2778 123.722 70.2222 124.778 70.6667 124.333C70.7222 124.278 70.7778 123.222 70.3333 123.667z"/>
<path style="fill:#003220; stroke:none;" d="M169 123L170 124L169 123z"/>
<path style="fill:#000000; stroke:none;" d="M171 123L172 124L171 123M67 124L63 129C65.089 127.444 66.4028 126.512 67 124z"/>
<path style="fill:#00120b; stroke:none;" d="M69 124L70 125L69 124z"/>
<path style="fill:#003723; stroke:none;" d="M168 124L169 125L168 124z"/>
<path style="fill:#000000; stroke:none;" d="M170 124L171 125L170 124z"/>
<path style="fill:#ffffff; stroke:none;" d="M67 125L64 129C65.7561 127.623 66.5396 127.106 67 125z"/>
<path style="fill:#00100a; stroke:none;" d="M68 125L69 126L68 125z"/>
<path style="fill:#009961; stroke:none;" d="M34 190C40.2323 186.762 42.7246 178.041 45.7531 172C52.1893 159.161 59.0226 141.508 71 133C69.4939 132.317 68.6852 132.174 67 132L71 125C63.6142 128.456 59.8625 136.178 56.1381 143.05C50.9744 152.578 45.6502 161.943 40.0802 171.247C36.3866 177.417 32.2605 182.608 34 190M105 132L103 128C114.658 124.459 129.065 131.72 140 136.003C146.804 138.668 152.887 142.403 160 139C156.752 138.001 153.378 139.083 150 138.092C137.835 134.521 126.476 128.139 114 125.455C109.784 124.548 97.1529 126.836 105 132z"/>
<path style="fill:#00301e; stroke:none;" d="M167.333 125.667C167.278 125.722 167.222 126.778 167.667 126.333C167.722 126.278 167.778 125.222 167.333 125.667z"/>
<path style="fill:#000000; stroke:none;" d="M169 125L170 126L169 125z"/>
<path style="fill:#001009; stroke:none;" d="M67 126L68 127L67 126z"/>
<path style="fill:#005334; stroke:none;" d="M106 126C111.145 128.755 118.228 130.151 124 131C119.167 127.399 111.938 126.259 106 126z"/>
<path style="fill:#00623e; stroke:none;" d="M166 126C165.132 128.355 164.426 130.531 164 133C165.836 130.692 166.797 128.889 166 126z"/>
<path style="fill:#00100a; stroke:none;" d="M66 127L67 128L66 127z"/>
<path style="fill:#001f13; stroke:none;" d="M105 127L106 128L105 127z"/>
<path style="fill:#000000; stroke:none;" d="M168 127L169 128L168 127z"/>
<path style="fill:#000f09; stroke:none;" d="M65 128L66 129L65 128z"/>
<path style="fill:#005e3c; stroke:none;" d="M103.333 128.667C103.278 128.722 103.222 129.778 103.667 129.333C103.722 129.278 103.778 128.222 103.333 128.667z"/>
<path style="fill:#000402; stroke:none;" d="M104.333 128.667C104.278 128.722 104.222 129.778 104.667 129.333C104.722 129.278 104.778 128.222 104.333 128.667z"/>
<path style="fill:#000000; stroke:none;" d="M106 128L107 129L106 128M109 128L110 129L109 128z"/>
<path style="fill:#000e09; stroke:none;" d="M64 129L65 130L64 129z"/>
<path style="fill:#000000; stroke:none;" d="M113 129L114 130L113 129M167 129L168 130L167 129z"/>
<path style="fill:#000d08; stroke:none;" d="M63 130L64 131L63 130z"/>
<path style="fill:#000704; stroke:none;" d="M105 130L106 131L105 130z"/>
<path style="fill:#000000; stroke:none;" d="M117 130L118 131L117 130z"/>
<path style="fill:#000c07; stroke:none;" d="M62 131L63 132L62 131z"/>
<path style="fill:#005435; stroke:none;" d="M105 131L106 132L105 131z"/>
<path style="fill:#001c12; stroke:none;" d="M106 131C109.809 136.816 120.361 140.006 127 141C121.231 136.638 112.716 133.796 106 131z"/>
<path style="fill:#000000; stroke:none;" d="M120 131L121 132L120 131z"/>
<path style="fill:#00452c; stroke:none;" d="M124 131C126.819 132.772 129.714 133.515 133 134C130.201 131.917 127.458 131.304 124 131z"/>
<path style="fill:#000000; stroke:none;" d="M166 131L167 132L166 131M60 132L61 133L60 132z"/>
<path style="fill:#006c44; stroke:none;" d="M62.3333 132.667C62.2778 132.722 62.2222 133.778 62.6667 133.333C62.7222 133.278 62.7778 132.222 62.3333 132.667z"/>
<path style="fill:#009760; stroke:none;" d="M105 132C107.648 136.462 113.269 138.524 118 140.316C127.036 143.738 135.479 147.206 145 149L145 152C133.895 155.205 124.671 163.684 113 165.737C107.692 166.671 100.248 166.707 95 165.468C91.1601 164.561 87.9584 162.516 84 162C89.2183 167.228 96.9224 167.989 104 168C121.634 168.027 134.123 159.251 149 151L149 149C142.249 146.095 134.916 144.482 128 141.947C120.115 139.056 112.726 135.216 105 132z"/>
<path style="fill:#000e09; stroke:none;" d="M61 133L62 134L61 133z"/>
<path style="fill:#000503; stroke:none;" d="M69 133L70 134L69 133z"/>
<path style="fill:#005d3b; stroke:none;" d="M70 133L70 144C71.4309 140.59 71.4309 136.41 70 133z"/>
<path style="fill:#009860; stroke:none;" d="M71 133C71 143.933 72.9149 156.787 84 162C80.8438 157.38 76.9365 153.248 74.7747 148C72.7747 143.145 72.9626 137.667 71 133z"/>
<path style="fill:#003521; stroke:none;" d="M163.333 133.667C163.278 133.722 163.222 134.778 163.667 134.333C163.722 134.278 163.778 133.222 163.333 133.667z"/>
<path style="fill:#000000; stroke:none;" d="M165 133L166 134L165 133z"/>
<path style="fill:#000b07; stroke:none;" d="M60 134L61 135L60 134z"/>
<path style="fill:#000d08; stroke:none;" d="M68 134L69 135L68 134z"/>
<path style="fill:#000a06; stroke:none;" d="M133 134L134 135L133 134z"/>
<path style="fill:#005435; stroke:none;" d="M134 134C135.248 134.685 135.548 134.749 137 135C135.752 134.315 135.452 134.251 134 134z"/>
<path style="fill:#000a06; stroke:none;" d="M59 135L60 136L59 135z"/>
<path style="fill:#000d08; stroke:none;" d="M67 135L68 136L67 135z"/>
<path style="fill:#000a06; stroke:none;" d="M136 135L137 136L136 135z"/>
<path style="fill:#00643f; stroke:none;" d="M137.667 135.333C137.222 135.778 138.278 135.722 138.333 135.667C138.778 135.222 137.722 135.278 137.667 135.333z"/>
<path style="fill:#00311f; stroke:none;" d="M162.333 135.667C162.278 135.722 162.222 136.778 162.667 136.333C162.722 136.278 162.778 135.222 162.333 135.667z"/>
<path style="fill:#000000; stroke:none;" d="M164 135L165 136L164 135z"/>
<path style="fill:#000e09; stroke:none;" d="M66 136L67 137L66 136z"/>
<path style="fill:#ffffff; stroke:none;" d="M67 136L68 137L67 136z"/>
<path style="fill:#000000; stroke:none;" d="M68 136L69 137L68 136z"/>
<path style="fill:#000704; stroke:none;" d="M138 136L139 137L138 136z"/>
<path style="fill:#005234; stroke:none;" d="M139 136C140.248 136.685 140.548 136.749 142 137C140.752 136.315 140.452 136.251 139 136z"/>
<path style="fill:#000b07; stroke:none;" d="M58 137L59 138L58 137z"/>
<path style="fill:#000f09; stroke:none;" d="M65.3333 137.667C65.2778 137.722 65.2222 138.778 65.6667 138.333C65.7222 138.278 65.7778 137.222 65.3333 137.667z"/>
<path style="fill:#000000; stroke:none;" d="M67 137L68 138L67 137z"/>
<path style="fill:#000805; stroke:none;" d="M141 137L142 138L141 137z"/>
<path style="fill:#00633e; stroke:none;" d="M142.667 137.333C142.222 137.778 143.278 137.722 143.333 137.667C143.778 137.222 142.722 137.278 142.667 137.333z"/>
<path style="fill:#003823; stroke:none;" d="M161 137L162 138L161 137z"/>
<path style="fill:#ffffff; stroke:none;" d="M162 137L159 141C160.756 139.623 161.54 139.106 162 137z"/>
<path style="fill:#000000; stroke:none;" d="M163 137L164 138L163 137z"/>
<path style="fill:#006e46; stroke:none;" d="M58.3333 138.667C58.2778 138.722 58.2222 139.778 58.6667 139.333C58.7222 139.278 58.7778 138.222 58.3333 138.667z"/>
<path style="fill:#005737; stroke:none;" d="M64 138L65 139L64 138z"/>
<path style="fill:#000604; stroke:none;" d="M143 138L144 139L143 138z"/>
<path style="fill:#005435; stroke:none;" d="M144 138C145.248 138.685 145.548 138.749 147 139C145.752 138.315 145.452 138.251 144 138z"/>
<path style="fill:#003a25; stroke:none;" d="M160 138L161 139L160 138z"/>
<path style="fill:#000000; stroke:none;" d="M162 138L163 139L162 138z"/>
<path style="fill:#000c07; stroke:none;" d="M57 139L58 140L57 139M64 139L65 140L64 139z"/>
<path style="fill:#000704; stroke:none;" d="M146 139L147 140L146 139z"/>
<path style="fill:#006640; stroke:none;" d="M147.667 139.333C147.222 139.778 148.278 139.722 148.333 139.667C148.778 139.222 147.722 139.278 147.667 139.333z"/>
<path style="fill:#003924; stroke:none;" d="M159 139L160 140L159 139z"/>
<path style="fill:#000000; stroke:none;" d="M161 139L162 140L161 139z"/>
<path style="fill:#000905; stroke:none;" d="M56 140L57 141L56 140z"/>
<path style="fill:#000e09; stroke:none;" d="M63 140L64 141L63 140z"/>
<path style="fill:#000403; stroke:none;" d="M148 140L149 141L148 140z"/>
<path style="fill:#005938; stroke:none;" d="M149 140C150.248 140.685 150.548 140.749 152 141C150.752 140.315 150.452 140.251 149 140z"/>
<path style="fill:#003220; stroke:none;" d="M157.667 140.333C157.222 140.778 158.278 140.722 158.333 140.667C158.778 140.222 157.722 140.278 157.667 140.333z"/>
<path style="fill:#000000; stroke:none;" d="M160 140L161 141L160 140z"/>
<path style="fill:#006842; stroke:none;" d="M56.3333 141.667C56.2778 141.722 56.2222 142.778 56.6667 142.333C56.7222 142.278 56.7778 141.222 56.3333 141.667z"/>
<path style="fill:#00100a; stroke:none;" d="M62.3333 141.667C62.2778 141.722 62.2222 142.778 62.6667 142.333C62.7222 142.278 62.7778 141.222 62.3333 141.667z"/>
<path style="fill:#000000; stroke:none;" d="M64 141L65 142L64 141z"/>
<path style="fill:#005837; stroke:none;" d="M126 141L127 142L126 141z"/>
<path style="fill:#001910; stroke:none;" d="M127 141C128.75 142.255 129.857 142.614 132 143C130.25 141.745 129.143 141.386 127 141z"/>
<path style="fill:#000402; stroke:none;" d="M151 141L152 142L151 141z"/>
<path style="fill:#004d31; stroke:none;" d="M152 141C153.769 141.779 155.036 141.912 157 142C155.231 141.221 153.964 141.088 152 141z"/>
<path style="fill:#000000; stroke:none;" d="M159 141L160 142L159 141z"/>
<path style="fill:#000905; stroke:none;" d="M55 142L56 143L55 142z"/>
<path style="fill:#000000; stroke:none;" d="M157 142L158 143L157 142z"/>
<path style="fill:#006c44; stroke:none;" d="M55.3333 143.667C55.2778 143.722 55.2222 144.778 55.6667 144.333C55.7222 144.278 55.7778 143.222 55.3333 143.667z"/>
<path style="fill:#000e09; stroke:none;" d="M61.3333 143.667C61.2778 143.722 61.2222 144.778 61.6667 144.333C61.7222 144.278 61.7778 143.222 61.3333 143.667z"/>
<path style="fill:#001a10; stroke:none;" d="M132 143C133.248 143.685 133.548 143.749 135 144C133.752 143.315 133.452 143.251 132 143z"/>
<path style="fill:#000906; stroke:none;" d="M54 144L55 145L54 144z"/>
<path style="fill:#000000; stroke:none;" d="M69 144L70 145L69 144z"/>
<path style="fill:#004d31; stroke:none;" d="M71 144L71 147C71.6961 145.446 71.6961 145.554 71 144z"/>
<path style="fill:#001910; stroke:none;" d="M135 144C136.248 144.685 136.548 144.749 138 145C136.752 144.315 136.452 144.251 135 144z"/>
<path style="fill:#006f46; stroke:none;" d="M54.3333 145.667C54.2778 145.722 54.2222 146.778 54.6667 146.333C54.7222 146.278 54.7778 145.222 54.3333 145.667z"/>
<path style="fill:#000c07; stroke:none;" d="M60 145L61 146L60 145z"/>
<path style="fill:#001910; stroke:none;" d="M138 145C139.248 145.685 139.548 145.749 141 146C139.752 145.315 139.452 145.251 138 145z"/>
<path style="fill:#000905; stroke:none;" d="M53 146L54 147L53 146z"/>
<path style="fill:#000e09; stroke:none;" d="M59.3333 146.667C59.2778 146.722 59.2222 147.778 59.6667 147.333C59.7222 147.278 59.7778 146.222 59.3333 146.667z"/>
<path style="fill:#001910; stroke:none;" d="M141 146C142.506 146.683 143.315 146.826 145 147C143.494 146.317 142.685 146.174 141 146z"/>
<path style="fill:#000603; stroke:none;" d="M52 147L53 148L52 147z"/>
<path style="fill:#000000; stroke:none;" d="M70 147L71 148L70 147z"/>
<path style="fill:#00492e; stroke:none;" d="M72 147L72 150C72.6961 148.446 72.6961 148.554 72 147z"/>
<path style="fill:#00160e; stroke:none;" d="M145 147C146.248 147.685 146.548 147.749 148 148C146.752 147.315 146.452 147.251 145 147z"/>
<path style="fill:#00643f; stroke:none;" d="M52.3333 148.667C52.2778 148.722 52.2222 149.778 52.6667 149.333C52.7222 149.278 52.7778 148.222 52.3333 148.667z"/>
<path style="fill:#000d08; stroke:none;" d="M58 148L59 149L58 148z"/>
<path style="fill:#00110a; stroke:none;" d="M148 148C148.691 149.388 148.985 149.861 150 151C150.986 149.521 151 149.797 151 148L148 148z"/>
<path style="fill:#000603; stroke:none;" d="M51 149L52 150L51 149z"/>
<path style="fill:#00100a; stroke:none;" d="M57.3333 149.667C57.2778 149.722 57.2222 150.778 57.6667 150.333C57.7222 150.278 57.7778 149.222 57.3333 149.667z"/>
<path style="fill:#006641; stroke:none;" d="M51.3333 150.667C51.2778 150.722 51.2222 151.778 51.6667 151.333C51.7222 151.278 51.7778 150.222 51.3333 150.667z"/>
<path style="fill:#000000; stroke:none;" d="M71 150L72 151L71 150z"/>
<path style="fill:#002c1c; stroke:none;" d="M73.3333 150.667C73.2777 150.722 73.2222 151.778 73.6667 151.333C73.7222 151.278 73.7778 150.222 73.3333 150.667z"/>
<path style="fill:#000603; stroke:none;" d="M50 151L51 152L50 151z"/>
<path style="fill:#000f09; stroke:none;" d="M56.3333 151.667C56.2778 151.722 56.2222 152.778 56.6667 152.333C56.7222 152.278 56.7778 151.222 56.3333 151.667z"/>
<path style="fill:#002b1b; stroke:none;" d="M147.667 151.333C147.222 151.778 148.278 151.722 148.333 151.667C148.778 151.222 147.722 151.278 147.667 151.333z"/>
<path style="fill:#ffffff; stroke:none;" d="M149 151L150 152L149 151z"/>
<path style="fill:#000000; stroke:none;" d="M150 151L151 152L150 151z"/>
<path style="fill:#006842; stroke:none;" d="M50.3333 152.667C50.2778 152.722 50.2222 153.778 50.6667 153.333C50.7222 153.278 50.7778 152.222 50.3333 152.667z"/>
<path style="fill:#000000; stroke:none;" d="M72 152L73 153L72 152z"/>
<path style="fill:#00291a; stroke:none;" d="M74.3333 152.667C74.2777 152.722 74.2222 153.778 74.6667 153.333C74.7222 153.278 74.7778 152.222 74.3333 152.667z"/>
<path style="fill:#003924; stroke:none;" d="M146 152L147 153L146 152z"/>
<path style="fill:#000000; stroke:none;" d="M149 152L150 153L149 152z"/>
<path style="fill:#000503; stroke:none;" d="M49 153L50 154L49 153z"/>
<path style="fill:#000f09; stroke:none;" d="M55.3333 153.667C55.2778 153.722 55.2222 154.778 55.6667 154.333C55.7222 154.278 55.7778 153.222 55.3333 153.667z"/>
<path style="fill:#00311f; stroke:none;" d="M144.667 153.333C144.222 153.778 145.278 153.722 145.333 153.667C145.778 153.222 144.722 153.278 144.667 153.333z"/>
<path style="fill:#ffffff; stroke:none;" d="M146 153L147 154L146 153z"/>
<path style="fill:#000000; stroke:none;" d="M147 153L148 154L147 153z"/>
<path style="fill:#006942; stroke:none;" d="M49.3333 154.667C49.2778 154.722 49.2222 155.778 49.6667 155.333C49.7222 155.278 49.7778 154.222 49.3333 154.667z"/>
<path style="fill:#000000; stroke:none;" d="M73 154C73.5451 155.635 73.3648 155.455 75 156C74.4549 154.365 74.6352 154.545 73 154z"/>
<path style="fill:#ffffff; stroke:none;" d="M74 154L75 155L74 154z"/>
<path style="fill:#00301f; stroke:none;" d="M75 154L76 155L75 154z"/>
<path style="fill:#003a24; stroke:none;" d="M143 154L144 155L143 154z"/>
<path style="fill:#000000; stroke:none;" d="M146 154L147 155L146 154z"/>
<path style="fill:#000402; stroke:none;" d="M48 155L49 156L48 155z"/>
<path style="fill:#000f09; stroke:none;" d="M54.3333 155.667C54.2778 155.722 54.2222 156.778 54.6667 156.333C54.7222 156.278 54.7778 155.222 54.3333 155.667z"/>
<path style="fill:#00291a; stroke:none;" d="M76.3333 155.667C76.2778 155.722 76.2222 156.778 76.6667 156.333C76.7222 156.278 76.7778 155.222 76.3333 155.667z"/>
<path style="fill:#00301e; stroke:none;" d="M141.667 155.333C141.222 155.778 142.278 155.722 142.333 155.667C142.778 155.222 141.722 155.278 141.667 155.333z"/>
<path style="fill:#ffffff; stroke:none;" d="M143 155L144 156L143 155z"/>
<path style="fill:#000000; stroke:none;" d="M144 155L145 156L144 155z"/>
<path style="fill:#006c44; stroke:none;" d="M48.3333 156.667C48.2778 156.722 48.2222 157.778 48.6667 157.333C48.7222 157.278 48.7778 156.222 48.3333 156.667z"/>
<path style="fill:#003522; stroke:none;" d="M139.667 156.333C139.222 156.778 140.278 156.722 140.333 156.667C140.778 156.222 139.722 156.278 139.667 156.333z"/>
<path style="fill:#000000; stroke:none;" d="M143 156L144 157L143 156z"/>
<path style="fill:#000402; stroke:none;" d="M47 157L48 158L47 157z"/>
<path style="fill:#000e09; stroke:none;" d="M53.3333 157.667C53.2778 157.722 53.2222 158.778 53.6667 158.333C53.7222 158.278 53.7778 157.222 53.3333 157.667z"/>
<path style="fill:#000000; stroke:none;" d="M75 157C77.0398 159.88 79.1201 161.96 82 164C79.9602 161.12 77.8799 159.04 75 157z"/>
<path style="fill:#ffffff; stroke:none;" d="M76 157C77.7952 159.507 79.4925 161.205 82 163C80.2048 160.493 78.5075 158.795 76 157z"/>
<path style="fill:#002b1b; stroke:none;" d="M77 157L78 158L77 157z"/>
<path style="fill:#003c26; stroke:none;" d="M138 157L139 158L138 157z"/>
<path style="fill:#000000; stroke:none;" d="M141 157L142 158L141 157z"/>
<path style="fill:#006f47; stroke:none;" d="M47.3333 158.667C47.2778 158.722 47.2222 159.778 47.6667 159.333C47.7222 159.278 47.7778 158.222 47.3333 158.667z"/>
<path style="fill:#002d1d; stroke:none;" d="M78 158L79 159L78 158z"/>
<path style="fill:#00301e; stroke:none;" d="M136.667 158.333C136.222 158.778 137.278 158.722 137.333 158.667C137.778 158.222 136.722 158.278 136.667 158.333z"/>
<path style="fill:#ffffff; stroke:none;" d="M138 158L139 159L138 158z"/>
<path style="fill:#000000; stroke:none;" d="M139 158L140 159L139 158z"/>
<path style="fill:#000503; stroke:none;" d="M46 159L47 160L46 159z"/>
<path style="fill:#000e09; stroke:none;" d="M52.3333 159.667C52.2778 159.722 52.2222 160.778 52.6667 160.333C52.7222 160.278 52.7778 159.222 52.3333 159.667z"/>
<path style="fill:#002e1d; stroke:none;" d="M79 159L80 160L79 159z"/>
<path style="fill:#003521; stroke:none;" d="M134.667 159.333C134.222 159.778 135.278 159.722 135.333 159.667C135.778 159.222 134.722 159.278 134.667 159.333z"/>
<path style="fill:#000000; stroke:none;" d="M138 159L139 160L138 159z"/>
<path style="fill:#000201; stroke:none;" d="M45 160L46 161L45 160z"/>
<path style="fill:#002d1d; stroke:none;" d="M80 160L81 161L80 160z"/>
<path style="fill:#003924; stroke:none;" d="M133 160L134 161L133 160z"/>
<path style="fill:#000000; stroke:none;" d="M136 160L137 161L136 160z"/>
<path style="fill:#006942; stroke:none;" d="M45.3333 161.667C45.2778 161.722 45.2222 162.778 45.6667 162.333C45.7222 162.278 45.7778 161.222 45.3333 161.667z"/>
<path style="fill:#000d08; stroke:none;" d="M51.3333 161.667C51.2778 161.722 51.2222 162.778 51.6667 162.333C51.7222 162.278 51.7778 161.222 51.3333 161.667z"/>
<path style="fill:#002b1b; stroke:none;" d="M81 161L82 162L81 161z"/>
<path style="fill:#002d1d; stroke:none;" d="M131.667 161.333C131.222 161.778 132.278 161.722 132.333 161.667C132.778 161.222 131.722 161.278 131.667 161.333z"/>
<path style="fill:#ffffff; stroke:none;" d="M133 161L134 162L133 161z"/>
<path style="fill:#000000; stroke:none;" d="M134 161L135 162L134 161z"/>
<path style="fill:#000201; stroke:none;" d="M44 162L45 163L44 162z"/>
<path style="fill:#005e3c; stroke:none;" d="M82.6667 162.333C82.2222 162.778 83.2778 162.722 83.3333 162.667C83.7778 162.222 82.7222 162.278 82.6667 162.333z"/>
<path style="fill:#006d45; stroke:none;" d="M125 165L131 163C128.279 162.192 126.708 162.75 125 165z"/>
<path style="fill:#000000; stroke:none;" d="M133 162L134 163L133 162z"/>
<path style="fill:#007147; stroke:none;" d="M44.3333 163.667C44.2778 163.722 44.2222 164.778 44.6667 164.333C44.7222 164.278 44.7778 163.222 44.3333 163.667z"/>
<path style="fill:#000d08; stroke:none;" d="M50.3333 163.667C50.2778 163.722 50.2222 164.778 50.6667 164.333C50.7222 164.278 50.7778 163.222 50.3333 163.667z"/>
<path style="fill:#002f1e; stroke:none;" d="M84 163L85 164L84 163z"/>
<path style="fill:#000000; stroke:none;" d="M131 163L132 164L131 163z"/>
<path style="fill:#000301; stroke:none;" d="M43 164L44 165L43 164z"/>
<path style="fill:#005b3a; stroke:none;" d="M49 164L50 165L49 164z"/>
<path style="fill:#000000; stroke:none;" d="M83 164C83.5451 165.635 83.3648 165.455 85 166C84.4549 164.365 84.6352 164.545 83 164z"/>
<path style="fill:#ffffff; stroke:none;" d="M84 164L85 165L84 164z"/>
<path style="fill:#005e3c; stroke:none;" d="M85.6667 164.333C85.2222 164.778 86.2778 164.722 86.3333 164.667C86.7778 164.222 85.7222 164.278 85.6667 164.333z"/>
<path style="fill:#000000; stroke:none;" d="M129 164L130 165L129 164z"/>
<path style="fill:#000100; stroke:none;" d="M42 165L43 166L42 165z"/>
<path style="fill:#000c07; stroke:none;" d="M49 165L50 166L49 165z"/>
<path style="fill:#00623e; stroke:none;" d="M87.6667 165.333C87.2222 165.778 88.2778 165.722 88.3333 165.667C88.7778 165.222 87.7222 165.278 87.6667 165.333z"/>
<path style="fill:#005f3c; stroke:none;" d="M121 165C122.248 165.685 122.548 165.749 124 166C122.752 165.315 122.452 165.251 121 165z"/>
<path style="fill:#000000; stroke:none;" d="M126 165L127 166L126 165z"/>
<path style="fill:#006c44; stroke:none;" d="M42.3333 166.667C42.2778 166.722 42.2222 167.778 42.6667 167.333C42.7222 167.278 42.7778 166.222 42.3333 166.667z"/>
<path style="fill:#000f09; stroke:none;" d="M48.3333 166.667C48.2778 166.722 48.2222 167.778 48.6667 167.333C48.7222 167.278 48.7778 166.222 48.3333 166.667z"/>
<path style="fill:#000000; stroke:none;" d="M86 166L87 167L86 166z"/>
<path style="fill:#005b3a; stroke:none;" d="M89 166C90.2484 166.685 90.5484 166.749 92 167C90.7516 166.315 90.4516 166.251 89 166z"/>
<path style="fill:#00633f; stroke:none;" d="M118 166C119.248 166.685 119.548 166.749 121 167C119.752 166.315 119.452 166.251 118 166z"/>
<path style="fill:#000000; stroke:none;" d="M124 166L125 167L124 166z"/>
<path style="fill:#000100; stroke:none;" d="M41 167L42 168L41 167z"/>
<path style="fill:#000000; stroke:none;" d="M88 167L89 168L88 167z"/>
<path style="fill:#00744a; stroke:none;" d="M92 167C93.5061 167.683 94.3148 167.826 96 168C94.494 167.317 93.6852 167.174 92 167z"/>
<path style="fill:#006942; stroke:none;" d="M114 167C115.248 167.685 115.548 167.749 117 168C115.752 167.315 115.452 167.251 114 167z"/>
<path style="fill:#002b1b; stroke:none;" d="M117 167L118 168L117 167z"/>
<path style="fill:#000000; stroke:none;" d="M121 167L122 168L121 167z"/>
<path style="fill:#007348; stroke:none;" d="M41.3333 168.667C41.2778 168.722 41.2222 169.778 41.6667 169.333C41.7222 169.278 41.7778 168.222 41.3333 168.667z"/>
<path style="fill:#000f09; stroke:none;" d="M47.3333 168.667C47.2778 168.722 47.2222 169.778 47.6667 169.333C47.7222 169.278 47.7778 168.222 47.3333 168.667z"/>
<path style="fill:#000000; stroke:none;" d="M91 168L92 169L91 168z"/>
<path style="fill:#007247; stroke:none;" d="M96 168C101.222 170.191 108.368 169 114 169C108.778 166.809 101.632 168 96 168z"/>
<path style="fill:#000000; stroke:none;" d="M118 168L119 169L118 168z"/>
<path style="fill:#000100; stroke:none;" d="M40 169L41 170L40 169z"/>
<path style="fill:#000000; stroke:none;" d="M95 169L96 170L95 169M114 169L115 170L114 169z"/>
<path style="fill:#000e08; stroke:none;" d="M46.3333 170.667C46.2778 170.722 46.2222 171.778 46.6667 171.333C46.7222 171.278 46.7778 170.222 46.3333 170.667z"/>
<path style="fill:#006d45; stroke:none;" d="M39.3333 171.667C39.2778 171.722 39.2222 172.778 39.6667 172.333C39.7222 172.278 39.7778 171.222 39.3333 171.667z"/>
<path style="fill:#000d08; stroke:none;" d="M45.3333 172.667C45.2778 172.722 45.2222 173.778 45.6667 173.333C45.7222 173.278 45.7778 172.222 45.3333 172.667z"/>
<path style="fill:#00744a; stroke:none;" d="M38.3333 173.667C38.2778 173.722 38.2222 174.778 38.6667 174.333C38.7222 174.278 38.7778 173.222 38.3333 173.667z"/>
<path style="fill:#000d08; stroke:none;" d="M44.3333 174.667C44.2778 174.722 44.2222 175.778 44.6667 175.333C44.7222 175.278 44.7778 174.222 44.3333 174.667z"/>
<path style="fill:#006c44; stroke:none;" d="M36.3333 176.667C36.2778 176.722 36.2222 177.778 36.6667 177.333C36.7222 177.278 36.7778 176.222 36.3333 176.667z"/>
<path style="fill:#000d08; stroke:none;" d="M43.3333 176.667C43.2778 176.722 43.2222 177.778 43.6667 177.333C43.7222 177.278 43.7778 176.222 43.3333 176.667z"/>
<path style="fill:#007148; stroke:none;" d="M35.3333 178.667C35.2778 178.722 35.2222 179.778 35.6667 179.333C35.7222 179.278 35.7778 178.222 35.3333 178.667z"/>
<path style="fill:#000c08; stroke:none;" d="M42.3333 178.667C42.2778 178.722 42.2222 179.778 42.6667 179.333C42.7222 179.278 42.7778 178.222 42.3333 178.667z"/>
<path style="fill:#00764a; stroke:none;" d="M34.3333 180.667C34.2778 180.722 34.2222 181.778 34.6667 181.333C34.7222 181.278 34.7778 180.222 34.3333 180.667z"/>
<path style="fill:#000c07; stroke:none;" d="M41.3333 180.667C41.2778 180.722 41.2222 181.778 41.6667 181.333C41.7222 181.278 41.7778 180.222 41.3333 180.667M40.3333 182.667C40.2778 182.722 40.2222 183.778 40.6667 183.333C40.7222 183.278 40.7778 182.222 40.3333 182.667z"/>
<path style="fill:#005d3b; stroke:none;" d="M32 183L32 187C32.7102 185.241 32.7102 184.759 32 183z"/>
<path style="fill:#000b07; stroke:none;" d="M39.3333 184.667C39.2778 184.722 39.2222 185.778 39.6667 185.333C39.7222 185.278 39.7778 184.222 39.3333 184.667z"/>
<path style="fill:#000a06; stroke:none;" d="M38.3333 186.667C38.2778 186.722 38.2222 187.778 38.6667 187.333C38.7222 187.278 38.7778 186.222 38.3333 186.667M37 188L38 189L37 188z"/>
<path style="fill:#000604; stroke:none;" d="M36 189L35 191L37 191C37 189.147 37.2997 189.65 36 189z"/>
</svg>
